<svg width="59" height="54" viewBox="0 0 59 54" fill="none" xmlns="http://www.w3.org/2000/svg">
<path d="M16.2532 40.9453L19.8762 36.3652L8.11841 27L19.8762 17.6348L16.2532 13.0547L1.62427 24.7441C1.30526 25.0176 1.04321 25.348 0.838135 25.7354C0.633057 26.1227 0.530518 26.5443 0.530518 27C0.530518 27.4557 0.633057 27.8773 0.838135 28.2646C1.04321 28.652 1.30526 28.9824 1.62427 29.2559L16.2532 40.9453ZM43.1868 13.0547L39.5637 17.6348L51.3215 27L39.5637 36.3652L43.1868 40.9453L57.8157 29.2559C58.1347 28.9824 58.3967 28.652 58.6018 28.2646C58.8069 27.8773 58.9094 27.4557 58.9094 27C58.9094 26.5443 58.8069 26.1227 58.6018 25.7354C58.3967 25.348 58.1347 25.0176 57.8157 24.7441L43.1868 13.0547ZM38.4016 1.36523L26.7122 53.8652L21.0383 52.6348L32.7278 0.134766L38.4016 1.36523Z" fill="#00EEFF"/>
</svg>
