<svg width="57" height="57" viewBox="0 0 57 57" fill="none" xmlns="http://www.w3.org/2000/svg">
<path d="M53.5034 3.47654C51.7716 1.79034 49.6183 0.947239 47.0435 0.947239C44.4686 0.947239 42.3153 1.79034 40.5835 3.47654L16.1792 27.9492C15.9058 28.2226 15.6893 28.5302 15.5298 28.872C15.3703 29.2138 15.2905 29.5898 15.2905 30C15.2905 30.4101 15.3703 30.7861 15.5298 31.1279C15.6893 31.4697 15.9058 31.7773 16.1792 32.0508L24.9292 40.8008C25.2026 41.0742 25.5103 41.2907 25.8521 41.4502C26.1938 41.6097 26.5698 41.6894 26.98 41.6894C27.3901 41.6894 27.7661 41.6097 28.1079 41.4502C28.4497 41.2907 28.7573 41.0742 29.0308 40.8008L53.5034 16.3965C54.3237 15.5761 54.9731 14.6077 55.4517 13.4912C55.9302 12.3746 56.1694 11.2011 56.1694 9.97068C56.1694 8.69463 55.9302 7.49834 55.4517 6.38181C54.9731 5.26527 54.3237 4.29685 53.5034 3.47654ZM49.3335 12.2265L26.98 34.6484L22.3315 30L44.7534 7.64646C45.0269 7.32745 45.3687 7.08819 45.7788 6.92868C46.189 6.76918 46.5991 6.68943 47.0093 6.68943C47.465 6.68943 47.8979 6.76918 48.3081 6.92868C48.7183 7.08819 49.0601 7.32745 49.3335 7.64646C49.6525 7.9199 49.8918 8.26169 50.0513 8.67185C50.2108 9.082 50.2905 9.51495 50.2905 9.97068C50.2905 10.3808 50.2108 10.791 50.0513 11.2011C49.8918 11.6113 49.6525 11.9531 49.3335 12.2265ZM15.2905 38.75C13.4676 37.8385 11.3143 37.8499 8.83057 38.7842C6.34684 39.7184 5.10498 41.6439 5.10498 44.5605C5.10498 46.3379 5.10498 47.8759 5.10498 49.1748C5.10498 50.4736 3.64665 51.8522 0.72998 53.3105C0.72998 53.3105 1.25407 53.6295 2.30225 54.2675C3.35042 54.86 4.67204 55.3613 6.26709 55.7715C7.86214 56.1816 9.6167 56.2955 11.5308 56.1133C13.3993 55.8854 15.1538 54.9511 16.7944 53.3105C18.6173 51.4876 19.5516 48.9697 19.5972 45.7568C19.6427 42.5439 18.2072 40.2083 15.2905 38.75Z" fill="#00EEFF"/>
</svg>
