<svg width="41" height="41" viewBox="0 0 41 41" fill="none" xmlns="http://www.w3.org/2000/svg">
<rect x="1.58997" y="1.89001" width="38" height="38" rx="19" stroke="#00EEFF" stroke-width="2"/>
<path d="M21.7618 28.39V21.5541H24.0665L24.3986 18.8783H21.7618V17.1791C21.7618 16.7885 21.8432 16.4727 22.006 16.2318C22.1687 15.9909 22.5236 15.8705 23.0704 15.8705H24.4767V13.4877C24.1772 13.4616 23.8582 13.4388 23.5197 13.4193C23.1811 13.3998 22.8426 13.39 22.504 13.39C22.491 13.39 22.478 13.39 22.465 13.39C22.4519 13.39 22.4389 13.39 22.4259 13.39C21.4103 13.39 20.5835 13.6927 19.9454 14.2982C19.3074 14.9037 18.9884 15.7793 18.9884 16.9252V18.8783H16.7032V21.5541H18.9884V28.39H21.7618Z" fill="#00EEFF"/>
</svg>
