<svg width="41" height="41" viewBox="0 0 41 41" fill="none" xmlns="http://www.w3.org/2000/svg">
<rect x="1.94" y="1.89001" width="38" height="38" rx="19" stroke="#00EEFF" stroke-width="2"/>
<path d="M28.4009 17.8041C28.3879 17.4786 28.3521 17.1563 28.2935 16.8373C28.2349 16.5183 28.147 16.2155 28.0298 15.9291L28.0494 15.9681C27.8541 15.4603 27.5676 15.0176 27.19 14.64C26.8124 14.2624 26.3762 13.976 25.8814 13.7806L25.8619 13.7611C25.5884 13.6569 25.2987 13.5756 24.9927 13.517C24.6867 13.4584 24.371 13.4291 24.0455 13.4291H24.0259C23.6223 13.403 23.261 13.3868 22.942 13.3802C22.6229 13.3737 21.9556 13.3705 20.94 13.3705C19.9244 13.3705 19.2538 13.3737 18.9283 13.3802C18.6028 13.3868 18.2447 13.403 17.8541 13.4291C17.5155 13.4291 17.1933 13.4616 16.8873 13.5267C16.5813 13.5918 16.2851 13.6765 15.9986 13.7806L16.0181 13.7611C15.5233 13.9694 15.0871 14.2624 14.7095 14.64C14.3319 15.0176 14.0455 15.4473 13.8502 15.9291L13.8306 15.9681C13.7265 16.2416 13.6451 16.5313 13.5865 16.8373C13.5279 17.1433 13.4921 17.459 13.4791 17.7845C13.466 18.1882 13.4563 18.5495 13.4498 18.8685C13.4433 19.1875 13.44 19.8549 13.44 20.8705C13.44 21.8861 13.44 22.5567 13.44 22.8822C13.44 23.2077 13.453 23.5723 13.4791 23.976C13.4921 24.2885 13.5279 24.5944 13.5865 24.8939C13.6451 25.1934 13.7265 25.4929 13.8306 25.7924C14.0259 26.3002 14.3124 26.7429 14.69 27.1205C15.0676 27.4981 15.5038 27.7845 15.9986 27.9799H16.0377C16.2981 28.097 16.5813 28.1882 16.8873 28.2533C17.1933 28.3184 17.509 28.351 17.8345 28.351H17.8541C18.2577 28.377 18.619 28.3933 18.938 28.3998C19.2571 28.4063 19.9244 28.4095 20.94 28.4095C21.9556 28.4095 22.6262 28.4063 22.9517 28.3998C23.2772 28.3933 23.6353 28.377 24.0259 28.351C24.3645 28.351 24.6867 28.3184 24.9927 28.2533C25.2987 28.1882 25.6015 28.1036 25.9009 27.9994L25.8619 28.0189C26.3567 27.8106 26.7929 27.5176 27.1705 27.14C27.5481 26.7624 27.8345 26.3327 28.0298 25.851L28.0494 25.8119C28.1535 25.5254 28.2349 25.2292 28.2935 24.9232C28.3521 24.6172 28.3879 24.308 28.4009 23.9955C28.414 23.5918 28.4237 23.2305 28.4302 22.9115C28.4367 22.5925 28.44 21.9252 28.44 20.9095C28.44 19.8809 28.44 19.2071 28.44 18.8881C28.44 18.5691 28.427 18.2077 28.4009 17.8041ZM20.94 24.7181C20.4061 24.7181 19.9048 24.6205 19.4361 24.4252C18.9673 24.2168 18.5572 23.9401 18.2056 23.5951C17.8541 23.25 17.5806 22.8431 17.3853 22.3744C17.177 21.9056 17.0728 21.4043 17.0728 20.8705C17.0728 20.3366 17.177 19.8353 17.3853 19.3666C17.5806 18.8978 17.8541 18.4909 18.2056 18.1459C18.5572 17.8008 18.9673 17.5241 19.4361 17.3158C19.9048 17.1205 20.4061 17.0228 20.94 17.0228C21.4739 17.0228 21.9752 17.1205 22.4439 17.3158C22.8996 17.5241 23.3033 17.8008 23.6548 18.1459C24.0064 18.4909 24.2798 18.8978 24.4752 19.3666C24.6835 19.8353 24.7877 20.3366 24.7877 20.8705C24.7877 21.4043 24.6835 21.9056 24.4752 22.3744C24.2798 22.8431 24.0064 23.25 23.6548 23.5951C23.3033 23.9401 22.8996 24.2168 22.4439 24.4252C21.9752 24.6205 21.4739 24.7181 20.94 24.7181ZM24.9439 17.7845C24.6965 17.7845 24.4849 17.6967 24.3091 17.5209C24.1334 17.3451 24.0455 17.1335 24.0455 16.8861C24.0455 16.6387 24.1334 16.4271 24.3091 16.2513C24.4849 16.0756 24.6965 15.9877 24.9439 15.9877C25.1913 15.9877 25.4029 16.0756 25.5787 16.2513C25.7545 16.4271 25.8423 16.6387 25.8423 16.8861C25.8423 17.1335 25.7545 17.3451 25.5787 17.5209C25.4029 17.6967 25.1913 17.7845 24.9439 17.7845ZM23.44 20.8705C23.44 21.5606 23.1959 22.1498 22.7076 22.6381C22.2193 23.1263 21.6301 23.3705 20.94 23.3705C20.2499 23.3705 19.6607 23.1263 19.1724 22.6381C18.6841 22.1498 18.44 21.5606 18.44 20.8705C18.44 20.1804 18.6841 19.5912 19.1724 19.1029C19.6607 18.6146 20.2499 18.3705 20.94 18.3705C21.6301 18.3705 22.2193 18.6146 22.7076 19.1029C23.1959 19.5912 23.44 20.1804 23.44 20.8705Z" fill="#00EEFF"/>
</svg>
