<svg width="41" height="41" viewBox="0 0 41 41" fill="none" xmlns="http://www.w3.org/2000/svg">
<rect x="1.60999" y="1.89001" width="38" height="38" rx="19" stroke="#00EEFF" stroke-width="2"/>
<path d="M16.5865 15.0697C16.5865 15.5645 16.4075 15.9909 16.0494 16.349C15.6914 16.7071 15.2649 16.8861 14.7701 16.8861C14.2623 16.8861 13.8294 16.7071 13.4713 16.349C13.1132 15.9909 12.9342 15.5645 12.9342 15.0697C12.9342 14.5619 13.1132 14.1289 13.4713 13.7709C13.8294 13.4128 14.2623 13.2338 14.7701 13.2338C15.2649 13.2338 15.6914 13.4128 16.0494 13.7709C16.4075 14.1289 16.5865 14.5619 16.5865 15.0697ZM18.3053 18.2728V28.39H21.4498V23.39C21.4498 22.726 21.5605 22.127 21.7819 21.5931C22.0032 21.0593 22.5175 20.7924 23.3248 20.7924C24.1321 20.7924 24.6074 21.0918 24.7506 21.6908C24.8938 22.2898 24.9655 22.8822 24.9655 23.4681V28.39H28.11V22.8431C28.11 21.476 27.8789 20.3301 27.4166 19.4056C26.9544 18.4812 25.929 18.0189 24.3405 18.0189C23.5722 18.0189 22.9375 18.1914 22.4362 18.5365C21.9349 18.8816 21.58 19.2559 21.3717 19.6595H21.3131V18.2728H18.3053ZM13.1881 18.2728H16.3326V28.39H13.1881V18.2728Z" fill="#00EEFF"/>
</svg>
