<svg width="41" height="41" viewBox="0 0 41 41" fill="none" xmlns="http://www.w3.org/2000/svg">
<rect x="1.27002" y="1.89001" width="38" height="38" rx="19" stroke="#00EEFF" stroke-width="2"/>
<path d="M26.6372 17.5502C26.6372 17.6283 26.6372 17.7032 26.6372 17.7748C26.6372 17.8464 26.6372 17.9213 26.6372 17.9994C26.6372 19.1062 26.4289 20.226 26.0122 21.3588C25.5955 22.4916 24.9836 23.517 24.1763 24.4349C23.369 25.3529 22.3729 26.0983 21.188 26.6713C20.0031 27.2572 18.6359 27.5502 17.0864 27.5502C16.1359 27.5502 15.2244 27.4167 14.3521 27.1498C13.4797 26.8829 12.6724 26.5085 11.9302 26.0267C12.0734 26.0528 12.2101 26.0658 12.3403 26.0658C12.4705 26.0658 12.6073 26.0658 12.7505 26.0658C12.7505 26.0658 12.757 26.0658 12.77 26.0658C13.5513 26.0658 14.2967 25.9388 15.0063 25.6849C15.716 25.431 16.3573 25.0762 16.9302 24.6205L16.9106 24.64C16.1815 24.627 15.5337 24.4056 14.9673 23.976C14.4009 23.5463 14.007 22.9994 13.7856 22.3353V22.3158C13.8768 22.3288 13.9777 22.3418 14.0884 22.3549C14.1991 22.3679 14.3065 22.3744 14.4106 22.3744C14.5669 22.3744 14.7166 22.3614 14.8599 22.3353C15.0031 22.3093 15.1463 22.2832 15.2896 22.2572C14.5213 22.0879 13.88 21.6973 13.3657 21.0853C12.8514 20.4733 12.5942 19.7637 12.5942 18.9564V18.9174C12.8286 19.0345 13.0728 19.1322 13.3267 19.2103C13.5806 19.2885 13.8442 19.334 14.1177 19.347C13.6619 19.0345 13.2974 18.6342 13.0239 18.1459C12.7505 17.6576 12.6138 17.127 12.6138 16.5541C12.6138 16.2416 12.6561 15.9421 12.7407 15.6556C12.8254 15.3692 12.9393 15.1023 13.0825 14.8549C13.4992 15.3627 13.9614 15.8249 14.4692 16.2416C14.9771 16.6582 15.5239 17.0163 16.1099 17.3158C16.6958 17.6153 17.3143 17.8562 17.9653 18.0385C18.6164 18.2207 19.2869 18.3314 19.9771 18.3705H19.9966C19.9705 18.2403 19.951 18.1101 19.938 17.9799C19.925 17.8497 19.9185 17.7194 19.9185 17.5892C19.9185 16.6648 20.2472 15.8737 20.9048 15.2162C21.5623 14.5586 22.3534 14.2299 23.2778 14.2299C23.7596 14.2299 24.2121 14.3275 24.6353 14.5228C25.0584 14.7181 25.4198 14.9786 25.7192 15.3041C26.1229 15.226 26.5037 15.1153 26.8618 14.972C27.2199 14.8288 27.5617 14.6595 27.8872 14.4642L27.8481 14.4838C27.7179 14.8874 27.5291 15.2455 27.2817 15.558C27.0343 15.8705 26.7414 16.1309 26.4028 16.3392H26.3833C26.7349 16.3002 27.0767 16.2351 27.4087 16.1439C27.7407 16.0528 28.0565 15.9356 28.356 15.7924L28.3169 15.8119C28.0825 16.1504 27.8254 16.4629 27.5454 16.7494C27.2655 17.0358 26.9692 17.2963 26.6567 17.5306L26.6372 17.5502Z" fill="#00EEFF"/>
</svg>
